<svg width="512" height="512" xmlns="http://www.w3.org/2000/svg">
  <!-- Fondo verde -->
  <rect width="512" height="512" fill="#037623" rx="80"/>
  
  <!-- Icono de cesta centrado arriba -->
  <g transform="translate(156, 140) scale(10)">
    <!-- Cesta -->
    <path d="M3 9h18l-1.5 11h-15L3 9z" stroke="white" stroke-width="1.5" fill="none"/>
    <!-- Asas -->
    <path d="M8 9V6c0-2 1.5-3.5 4-3.5s4 1.5 4 3.5v3" stroke="white" stroke-width="1.5" fill="none"/>
    <!-- Corazón rojo centrado en la cesta -->
    <g transform="translate(12, 15)">
      <path d="M0 8.35l-1.45-1.32C-6.6 2.36-10 -0.72-10-4.5-10-7.58-7.58-10-4.5-10c1.74 0 3.41.81 4.5 2.09C1.09-9.19 2.76-10 4.5-10 7.58-10 10-7.58 10-4.5c0 3.78-3.4 6.86-8.55 11.54L0 8.35z" fill="#ff0000" transform="scale(0.45)"/>
    </g>
  </g>
  
  <!-- Texto centrado abajo (bien separado) -->
  <text 
    x="256" 
    y="410" 
    font-size="58" 
    text-anchor="middle" 
    fill="white" 
    font-weight="900" 
    font-family="system-ui, -apple-system, sans-serif"
    letter-spacing="2"
  >MI MEJOR CESTA</text>
  
</svg>
